<svg width="17" height="12" viewBox="0 0 17 12" fill="none" xmlns="http://www.w3.org/2000/svg">
<path d="M15.9869 -0.0065461C15.8137 -0.00138534 15.6493 0.0710007 15.5285 0.195277L5.33323 10.3906L1.13791 6.19528C1.07648 6.13129 1.0029 6.08021 0.921486 6.04502C0.840067 6.00983 0.752445 5.99124 0.663751 5.99034C0.575057 5.98944 0.487075 6.00624 0.404957 6.03977C0.322838 6.07329 0.248235 6.12287 0.185516 6.18559C0.122797 6.24831 0.0732226 6.32291 0.0396966 6.40503C0.00617046 6.48714 -0.0106335 6.57513 -0.00973112 6.66382C-0.00882874 6.75251 0.00976183 6.84014 0.0449518 6.92156C0.0801417 7.00298 0.131224 7.07655 0.195206 7.13798L4.86187 11.8047C4.9869 11.9296 5.15645 11.9998 5.33323 11.9998C5.51001 11.9998 5.67955 11.9296 5.80458 11.8047L16.4712 1.13799C16.5676 1.04434 16.6334 0.923783 16.66 0.792103C16.6867 0.660423 16.6729 0.523767 16.6205 0.400043C16.5682 0.27632 16.4797 0.1713 16.3666 0.0987472C16.2535 0.0261945 16.1212 -0.0105063 15.9869 -0.0065461Z" fill="white"/>
</svg>
